{"accessors":[{"name":"<STL_BINARY>_1_positions","componentType":5126,"count":55032,"min":[0.000340397993568331,0,0],"max":[7.690730094909668,8.331199645996094,6.0071001052856445],"type":"VEC3","bufferView":0,"byteOffset":0},{"name":"<STL_BINARY>_1_normals","componentType":5126,"count":55032,"min":[-1,-1,-1],"max":[1,1,1],"type":"VEC3","bufferView":0,"byteOffset":660384},{"name":"<STL_BINARY>_1_0_indices","componentType":5123,"count":57786,"min":[0],"max":[55031],"type":"SCALAR","bufferView":1,"byteOffset":0}],"asset":{"generator":"obj2gltf","version":"2.0"},"buffers":[{"name":"Button","byteLength":1436340,"uri":"data:application/octet-stream;base64,"}],"bufferViews":[{"name":"bufferView_0","buffer":0,"byteLength":1320768,"byteOffset":0,"byteStride":12,"target":34962},{"name":"bufferView_1","buffer":0,"byteLength":115572,"byteOffset":1320768,"target":34963}],"materials":[{"name":"DefaultMaterial","pbrMetallicRoughness":{"baseColorFactor":[0.5,0.5,0.5,1],"metallicFactor":0,"roughnessFactor":1},"emissiveFactor":[0,0,0],"alphaMode":"OPAQUE","doubleSided":false}],"meshes":[{"name":"<STL_BINARY>_1","primitives":[{"attributes":{"POSITION":0,"NORMAL":1},"indices":2,"material":0,"mode":4}]}],"nodes":[{"name":"<STL_BINARY>","mesh":0}],"scene":0,"scenes":[{"nodes":[0]}]}
