{
  "asset": {
    "version": "2.0",
    "generator": "Sketchup glTF Exporter v1.2.6 by Centaur"
  },
  "scene": 0,
  "scenes": [
    {
      "nodes": [
        0
      ]
    }
  ],
  "samplers": [
    {
    }
  ],
  "nodes": [
    {
      "name": "root",
      "children": [
        1,
        2,
        3,
        4,
        5
      ]
    },
    {
      "name": "LeadTip",
      "mesh": 0
    },
    {
      "name": "LeadTip",
      "mesh": 1
    },
    {
      "name": "wire",
      "mesh": 2
    },
    {
      "name": "leftti",
      "mesh": 3
    },
    {
      "name": "righttip",
      "mesh": 4
    }
  ],
  "materials": [
    {
      "pbrMetallicRoughness": {
        "baseColorFactor": [
          0.0,
          0.0,
          0.0,
          1.0
        ],
        "metallicFactor": 0.1,
        "roughnessFactor": 0.9
      },
      "name": "black"
    },
    {
      "pbrMetallicRoughness": {
        "baseColorFactor": [
          0.0,
          0.029,
          1.0,
          1.0
        ],
        "metallicFactor": 0.1,
        "roughnessFactor": 0.9
      },
      "name": "Material4"
    },
    {
      "pbrMetallicRoughness": {
        "baseColorTexture": {
          "index": 0
        },
        "roughnessFactor": 0.1
      },
      "name": "Metal_Corrogated_Shiny"
    }
  ],
  "images": [
    {
      "bufferView": 0,
      "mimeType": "image/jpeg"
    }
  ],
  "textures": [
    {
      "source": 0,
      "sampler": 0
    }
  ],
  "meshes": [
    {
      "primitives": [
        {
          "attributes": {
            "POSITION": 0,
            "NORMAL": 1
          },
          "indices": 5,
          "mode": 4,
          "material": 0
        }
      ]
    },
    {
      "primitives": [
        {
          "attributes": {
            "POSITION": 0,
            "NORMAL": 1
          },
          "indices": 6,
          "mode": 4,
          "material": 0
        }
      ]
    },
    {
      "primitives": [
        {
          "attributes": {
            "POSITION": 0,
            "NORMAL": 1
          },
          "indices": 7,
          "mode": 4,
          "material": 1
        }
      ]
    },
    {
      "primitives": [
        {
          "attributes": {
            "POSITION": 2,
            "NORMAL": 3,
            "TEXCOORD_0": 4
          },
          "indices": 8,
          "mode": 4,
          "material": 2
        }
      ]
    },
    {
      "primitives": [
        {
          "attributes": {
            "POSITION": 2,
            "NORMAL": 3,
            "TEXCOORD_0": 4
          },
          "indices": 9,
          "mode": 4,
          "material": 2
        }
      ]
    }
  ],
  "accessors": [
    {
      "bufferView": 1,
      "componentType": 5126,
      "count": 552,
      "type": "VEC3",
      "min": [
        -0.14347412753459982,
        -0.6127,
        -7.153345950605235
      ],
      "max": [
        0.14371826270702795,
        3.5708741275346,
        0.1398
      ]
    },
    {
      "bufferView": 2,
      "componentType": 5126,
      "count": 552,
      "type": "VEC3",
      "min": [
        -1.0,
        -1.0,
        -1.0
      ],
      "max": [
        1.0,
        1.0,
        1.0
      ]
    },
    {
      "bufferView": 3,
      "componentType": 5126,
      "count": 236,
      "type": "VEC3",
      "min": [
        -0.0649734734328292,
        -1.1337000000000013,
        -7.073937945685637
      ],
      "max": [
        0.056056425989022274,
        -0.6021407340581763,
        0.05095968986584627
      ]
    },
    {
      "bufferView": 4,
      "componentType": 5126,
      "count": 236,
      "type": "VEC3",
      "min": [
        -1.0,
        -1.0,
        -1.0
      ],
      "max": [
        1.0,
        1.0,
        1.0
      ]
    },
    {
      "bufferView": 5,
      "componentType": 5126,
      "count": 236,
      "type": "VEC2",
      "min": [
        -3.905511811023622,
        -19.511811023622094
      ],
      "max": [
        3.905511811023622,
        1.0
      ]
    },
    {
      "bufferView": 6,
      "componentType": 5123,
      "count": 276,
      "type": "SCALAR"
    },
    {
      "bufferView": 6,
      "componentType": 5123,
      "count": 276,
      "type": "SCALAR",
      "byteOffset": 552
    },
    {
      "bufferView": 6,
      "componentType": 5123,
      "count": 1860,
      "type": "SCALAR",
      "byteOffset": 1104
    },
    {
      "bufferView": 7,
      "componentType": 5121,
      "count": 276,
      "type": "SCALAR"
    },
    {
      "bufferView": 7,
      "componentType": 5121,
      "count": 144,
      "type": "SCALAR",
      "byteOffset": 276
    }
  ],
  "bufferViews": [
    {
      "buffer": 0,
      "byteLength": 1596
    },
    {
      "buffer": 0,
      "byteOffset": 1596,
      "byteLength": 6624,
      "target": 34962,
      "byteStride": 12
    },
    {
      "buffer": 0,
      "byteOffset": 8220,
      "byteLength": 6624,
      "target": 34962,
      "byteStride": 12
    },
    {
      "buffer": 0,
      "byteOffset": 14844,
      "byteLength": 2832,
      "target": 34962,
      "byteStride": 12
    },
    {
      "buffer": 0,
      "byteOffset": 17676,
      "byteLength": 2832,
      "target": 34962,
      "byteStride": 12
    },
    {
      "buffer": 0,
      "byteOffset": 20512,
      "byteLength": 1888,
      "target": 34962,
      "byteStride": 8
    },
    {
      "buffer": 0,
      "byteOffset": 22400,
      "byteLength": 4824,
      "target": 34963
    },
    {
      "buffer": 0,
      "byteOffset": 27224,
      "byteLength": 420,
      "target": 34963
    }
  ],
  "buffers": [
    {
      "uri": "data:application/octet-stream;base64,",
      "byteLength": 27644
    }
  ]
}